<?xml version="1.0" encoding="utf-8"?>
<!-- Generator: Adobe Illustrator 21.0.2, SVG Export Plug-In . SVG Version: 6.00 Build 0)  -->
<svg version="1.1" id="Layer_1" xmlns="http://www.w3.org/2000/svg" xmlns:xlink="http://www.w3.org/1999/xlink" x="0px" y="0px"
	 viewBox="0 0 1280 1280" style="enable-background:new 0 0 1280 1280;" xml:space="preserve">
<style type="text/css">
	.st0{fill:#00260D;}
</style>
<g transform="translate(0.000000,1280.000000) scale(0.100000,-0.100000)">
	<path class="st0" d="M2479,12009c-87-13-312-66-397-95c-284-94-596-324-786-578c-177-236-246-384-311-666c-19-80-39-189-44-242
		c-15-133-15-7896-1-8022c24-209,99-472,179-630c105-206,294-437,466-571c230-179,389-258,654-325c258-65-91-60,4296-60
		c4372,0,4031-5,4290,59c230,57,372,121,569,259c234,164,428,390,556,647c92,185,158,422,180,647c7,69,10,1412,7,4058
		c-3,3717-4,3960-20,4040c-73,350-141,521-304,752c-104,149-224,273-364,377c-217,163-371,237-609,297c-279,69,80,64-4320,63
		C4328,12018,2510,12014,2479,12009z M9833,10580c260-30,537-213,677-448c57-97,107-225,120-307c7-49,10-1075,8-3425l-3-3355l-29-75
		c-102-269-258-450-481-560c-123-60-177-78-274-91c-50-6-1237-9-3401-7l-3325,3l-104,37c-304,109-510,316-618,623l-28,80v3390v3390
		l23,70c57,169,135,295,254,411c91,89,164,140,272,189c101,45,166,65,244,75C3271,10592,9728,10592,9833,10580z"/>
	<path class="st0" d="M4400,9510c-408-34-824-123-1109-239c-68-27-134-60-147-72l-24-22V7085c0-1876,2-2093,16-2113
		c22-31,58-28,149,14c220,102,555,183,945,231c210,25,728,25,890,0c225-35,443-103,630-197c161-81,274-163,405-293
		c98-99,125-120,149-120c18,0,36,8,48,22c17,22,18,96,18,2091c0,1137-3,2082-7,2100c-4,23-35,63-101,132c-276,287-650,469-1117,544
		C5028,9515,4565,9523,4400,9510z"/>
	<path class="st0" d="M8015,9509c-514-54-1009-291-1276-611l-49-59V6741c0-2020,1-2099,18-2114c40-37,65-23,184,96
		c287,288,693,464,1172,508c161,15,578,6,766-15c375-44,710-126,939-232c85-39,120-42,147-13c19,21,19,72,22,2088
		c2,1495,0,2077-8,2104c-11,36-18,42-95,77c-287,133-735,234-1194,270C8485,9522,8132,9521,8015,9509z"/>
	<path class="st0" d="M4545,4919c-490-21-995-126-1316-272c-118-54-109-26-109-343c0-261,1-275,20-294c27-27,46-25,135,15
		c164,75,465,161,695,199c415,69,860,79,1137,25c464-89,950-395,1306-821c81-98,92-108,123-108c29,0,40,8,91,73
		c81,102,261,285,373,379c249,210,582,385,867,457c293,74,760,72,1223-5c259-43,566-131,711-204c69-35,101-38,129-10
		c19,19,20,33,20,293c0,203-3,277-12,290c-48,63-511,210-838,266c-291,50-699,76-921,60c-408-31-791-182-1159-457
		c-107-80-372-332-452-429l-35-43l-51,64c-29,35-110,120-181,188c-425,412-905,640-1427,678c-76,5-143,9-149,8
		C4720,4928,4639,4924,4545,4919z"/>
</g>
</svg>
